<svg viewBox="0 0 40 40" xmlns="http://www.w3.org/2000/svg" xmlns:xlink="http://www.w3.org/1999/xlink" width="40.000000" height="40.000000" fill="none" customFrame="#000000">
	<defs>
		<clipPath id="clipPath_0">
			<rect width="24.000000" height="24.000000" x="8.000000" y="8.000000" rx="12.000000" fill="rgb(255,255,255)" />
		</clipPath>
	</defs>
	<rect id="Add" width="40.000000" height="40.000000" x="0.000000" y="0.000000" />
	<g id="Icon/add2" customFrame="url(#clipPath_0)">
		<rect id="Icon/add2" width="24.000000" height="24.000000" x="8.000000" y="8.000000" rx="12.000000" />
		<path id="Subtract" d="M20 32C26.6274 32 32 26.6274 32 20C32 13.3726 26.6274 8 20 8C13.3726 8 8 13.3726 8 20C8 26.6274 13.3726 32 20 32ZM21 21L27 21L27 19L21 19L21 13L19 13L19 19L13 19L13 21L19 21L19 27L21 27L21 21Z" fill="rgb(255,255,255)" fill-rule="evenodd" />
	</g>
</svg>
