<svg viewBox="0 0 24 24" xmlns="http://www.w3.org/2000/svg" xmlns:xlink="http://www.w3.org/1999/xlink" width="24.000000" height="24.000000" fill="none">
	<rect id="Icon/notifications" width="24.000000" height="24.000000" x="0.000000" y="0.000000" fill="rgb(255,255,255)" fill-opacity="0" />
	<path id="Vector" d="M0 0L24 0L24 24L0 24L0 0Z" fill-rule="nonzero" />
	<path id="Vector" d="M12 22C13.1 22 14 21.1 14 20L10 20C10 21.1 10.9 22 12 22ZM18 16L18 11C18 7.93 16.37 5.36 13.5 4.68L13.5 4C13.5 3.17 12.83 2.5 12 2.5C11.17 2.5 10.5 3.17 10.5 4L10.5 4.68C7.64 5.36 6 7.92 6 11L6 16L4 18L4 19L20 19L20 18L18 16ZM16 17L8 17L8 11C8 8.52 9.51 6.5 12 6.5C14.49 6.5 16 8.52 16 11L16 17Z" fill="rgb(255,255,255)" fill-rule="nonzero" />
</svg>
